# xmcd
#
# Track frame offsets:
#	151
#	28436
#	57560
#	82363
#	111798
#	138605
#	159207
#	179044
#	193590
#	207257
#
# Disc length: 3008 seconds
#
# Revision: 1
# Processed by: cddbd v1.5.1PL0 Copyright (c) Steve Scherf et al.
# Submitted via: audiograbber 1.83.01
#
DISCID=9b0bbe0a
DTITLE=Various Artist - Va Mix - Ultimate Chilled
DYEAR=2004
DGENRE=Jazz
TTITLE0=Claude Challe - Je Nous Aime (Rollercone Remix)
TTITLE1=Dalminjo - And She Said (Psysics Deep Bossa Mix)
TTITLE2=Nathan Haines - O Misterio
TTITLE3=Russ Gabriel Feat Corinna Joseph - Patience (Extended Mix)
TTITLE4=DJ Cam feat Anggun - Summer In Paris
TTITLE5=Rollercone - J'Avance
TTITLE6=Zorg - One Night in Monte Carlo
TTITLE7=Westpark Unit - Still
TTITLE8=Patchworks - Corn Bread (Spanking Machine Remix)
TTITLE9=Playin' 4 The City - Music and The Rhythm
EXTD=YEAR: 2004
EXTT0=
EXTT1=
EXTT2=
EXTT3=
EXTT4=
EXTT5=
EXTT6=
EXTT7=
EXTT8=
EXTT9=
PLAYORDER=
